<svg width="418" height="374" viewBox="0 0 418 374" fill="none" xmlns="http://www.w3.org/2000/svg">
<rect width="418" height="374" fill="#E5E5E5"/>
<g id="icon" filter="url(#filter0_b)">
<g clip-path="url(#clip0)">
<rect width="418" height="374" fill="#3D00E0"/>
<rect width="418" height="374" fill="url(#paint0_linear)"/>
<g id="board">
<line id="Line 1" x1="0.00239234" y1="123" x2="418.002" y2="124" stroke="white" stroke-width="2"/>
<line id="Line 2" x1="0.00239234" y1="246" x2="418.002" y2="247" stroke="white" stroke-width="2"/>
<line id="Line 3" x1="127" y1="-0.00534752" x2="129" y2="373.995" stroke="white" stroke-width="2"/>
<line id="Line 4" x1="291" y1="0.00267379" x2="290" y2="374.003" stroke="white" stroke-width="2"/>
<path id="X" d="M64.2545 60.9943L80.5765 34.8147L91.1702 34.7996L69.6561 68.6741L91.7833 103.049L81.0958 103.064L64.2766 76.463L47.4396 103.112L36.799 103.127L58.8748 68.6895L37.2171 34.8767L47.764 34.8616L64.2545 60.9943Z" fill="white"/>
<path id="O" d="M85.4219 192.078C85.4219 198.766 84.2969 204.609 82.0469 209.609C79.7969 214.578 76.6094 218.375 72.4844 221C68.3594 223.625 63.5469 224.938 58.0469 224.938C52.6719 224.938 47.9062 223.625 43.75 221C39.5938 218.344 36.3594 214.578 34.0469 209.703C31.7656 204.797 30.5938 199.125 30.5312 192.688V187.766C30.5312 181.203 31.6719 175.406 33.9531 170.375C36.2344 165.344 39.4531 161.5 43.6094 158.844C47.7969 156.156 52.5781 154.812 57.9531 154.812C63.4219 154.812 68.2344 156.141 72.3906 158.797C76.5781 161.422 79.7969 165.25 82.0469 170.281C84.2969 175.281 85.4219 181.109 85.4219 187.766V192.078ZM76.4688 187.672C76.4688 179.578 74.8438 173.375 71.5938 169.062C68.3438 164.719 63.7969 162.547 57.9531 162.547C52.2656 162.547 47.7812 164.719 44.5 169.062C41.25 173.375 39.5781 179.375 39.4844 187.062V192.078C39.4844 199.922 41.125 206.094 44.4062 210.594C47.7188 215.062 52.2656 217.297 58.0469 217.297C63.8594 217.297 68.3594 215.188 71.5469 210.969C74.7344 206.719 76.375 200.641 76.4688 192.734V187.672Z" fill="white"/>
<path id="O_2" d="M243.422 192.078C243.422 198.766 242.297 204.609 240.047 209.609C237.797 214.578 234.609 218.375 230.484 221C226.359 223.625 221.547 224.938 216.047 224.938C210.672 224.938 205.906 223.625 201.75 221C197.594 218.344 194.359 214.578 192.047 209.703C189.766 204.797 188.594 199.125 188.531 192.688V187.766C188.531 181.203 189.672 175.406 191.953 170.375C194.234 165.344 197.453 161.5 201.609 158.844C205.797 156.156 210.578 154.812 215.953 154.812C221.422 154.812 226.234 156.141 230.391 158.797C234.578 161.422 237.797 165.25 240.047 170.281C242.297 175.281 243.422 181.109 243.422 187.766V192.078ZM234.469 187.672C234.469 179.578 232.844 173.375 229.594 169.062C226.344 164.719 221.797 162.547 215.953 162.547C210.266 162.547 205.781 164.719 202.5 169.062C199.25 173.375 197.578 179.375 197.484 187.062V192.078C197.484 199.922 199.125 206.094 202.406 210.594C205.719 215.062 210.266 217.297 216.047 217.297C221.859 217.297 226.359 215.188 229.547 210.969C232.734 206.719 234.375 200.641 234.469 192.734V187.672Z" fill="white"/>
<path id="O_3" d="M383.422 190.078C383.422 196.766 382.297 202.609 380.047 207.609C377.797 212.578 374.609 216.375 370.484 219C366.359 221.625 361.547 222.938 356.047 222.938C350.672 222.938 345.906 221.625 341.75 219C337.594 216.344 334.359 212.578 332.047 207.703C329.766 202.797 328.594 197.125 328.531 190.688V185.766C328.531 179.203 329.672 173.406 331.953 168.375C334.234 163.344 337.453 159.5 341.609 156.844C345.797 154.156 350.578 152.812 355.953 152.812C361.422 152.812 366.234 154.141 370.391 156.797C374.578 159.422 377.797 163.25 380.047 168.281C382.297 173.281 383.422 179.109 383.422 185.766V190.078ZM374.469 185.672C374.469 177.578 372.844 171.375 369.594 167.062C366.344 162.719 361.797 160.547 355.953 160.547C350.266 160.547 345.781 162.719 342.5 167.062C339.25 171.375 337.578 177.375 337.484 185.062V190.078C337.484 197.922 339.125 204.094 342.406 208.594C345.719 213.062 350.266 215.297 356.047 215.297C361.859 215.297 366.359 213.188 369.547 208.969C372.734 204.719 374.375 198.641 374.469 190.734V185.672Z" fill="white"/>
<line id="Line 5" x1="12" y1="186" x2="401" y2="186" stroke="white" stroke-width="2"/>
<path id="X_2" d="M213.188 304.906L229.547 278.75H240.141L218.578 312.594L240.656 347H229.969L213.188 320.375L196.312 347H185.672L207.797 312.594L186.188 278.75H196.734L213.188 304.906Z" fill="white"/>
</g>
</g>
<rect x="0.5" y="0.5" width="417" height="373" stroke="black"/>
</g>
<defs>
<filter id="filter0_b" x="-4" y="-4" width="426" height="382" filterUnits="userSpaceOnUse" color-interpolation-filters="sRGB">
<feFlood flood-opacity="0" result="BackgroundImageFix"/>
<feGaussianBlur in="BackgroundImage" stdDeviation="2"/>
<feComposite in2="SourceAlpha" operator="in" result="effect1_backgroundBlur"/>
<feBlend mode="normal" in="SourceGraphic" in2="effect1_backgroundBlur" result="shape"/>
</filter>
<linearGradient id="paint0_linear" x1="418" y1="227" x2="20" y2="6.00003" gradientUnits="userSpaceOnUse">
<stop stop-color="#9DFEEC"/>
<stop offset="1" stop-color="white" stop-opacity="0"/>
</linearGradient>
<clipPath id="clip0">
<rect width="418" height="374" fill="white"/>
</clipPath>
</defs>
</svg>
